<svg id="Layer_1" enable-background="new 0 0 511.908 511.908" height="512" viewBox="0 0 511.908 511.908" width="512" xmlns="http://www.w3.org/2000/svg"><g><g><path d="m177.831 57.24c13.268-.529 13.258-19.476 0-20h-.008c-13.268.531-13.25 19.478.008 20z"/><path d="m278.456 203.057c4.784 2.762 10.899 1.122 13.66-3.66 1.568-2.914 6.112-2.914 7.68 0 7.111 11.252 23.503 1.691 17.32-10-9.189-16.186-33.136-16.181-42.32 0-2.762 4.783-1.124 10.9 3.66 13.66z"/><path d="m237.113 189.397c-9.189-16.186-33.136-16.181-42.32 0-2.762 4.783-1.123 10.899 3.66 13.66 4.784 2.762 10.9 1.122 13.66-3.66 1.568-2.914 6.112-2.914 7.68 0 7.11 11.252 23.503 1.691 17.32-10z"/><path d="m278.026 239.049c3.904-3.906 3.903-10.237-.002-14.143-3.907-3.905-10.237-3.903-14.143.002-4.173 4.351-11.683 4.349-15.856-.001-3.906-3.904-10.236-3.904-14.143 0-3.905 3.905-3.905 10.237 0 14.143 11.621 12.109 32.526 12.109 44.144-.001z"/><path d="m467.361 443.145c-.224-8.686-1.344-18.337-7.963-24.059-2.439-2.109-5.141-3.236-7.676-3.809-8.592-26.427-30.188-45.44-62.902-55.228l-82.865-24.791v-26.557c10.47-5.143 19.91-11.987 27.961-20.388 16.733-17.459 26.762-40.662 28.736-66.109 11.655-2.372 21.031-11.087 24.355-22.37 29.584-6.251 41.717-43.931 20.684-66.207 11.422-21.19.189-48.662-22.067-56.165 1.785-24.445-19.867-45.16-44.202-42.331-7.766-21.142-34.428-31.653-54.944-21.096-15.357-18.718-45.7-18.712-61.05.005-2.92-1.444-6.017-2.532-9.225-3.228-13.078-2.292-17.084 16.225-4.236 19.547 3.556.771 6.84 2.512 9.499 5.035 2.376 2.254 5.701 3.204 8.911 2.538 3.206-.663 5.885-2.854 7.17-5.867 6.792-16.117 30.026-16.11 36.814 0 1.285 3.012 3.963 5.204 7.17 5.867 3.206.663 6.535-.284 8.91-2.538 11.942-11.5 32.261-3.723 33.682 12.722.28 3.182 2.063 6.038 4.8 7.688 2.735 1.649 6.094 1.891 9.038.653 15.891-6.782 32.558 9.125 26.536 25.314-1.087 2.975-.701 6.289 1.042 8.935 1.742 2.645 4.635 4.308 7.798 4.482 16.663.78 24.983 21.297 13.616 33.474-2.002 2.184-2.933 5.142-2.542 8.077.392 2.936 2.063 5.548 4.566 7.131 13.721 8.567 11.76 29.22-2.841 35.321-3.862-9.92-12.527-17.459-23.124-19.744v-10.717c0-5.522-4.478-10-10-10-10.256 0-18.805-7.675-19.885-17.854-.671-7.542-9.833-11.59-15.859-7.007-7.922 6.004-19.97 4.848-26.56-2.629-2.275-2.48-5.646-3.649-8.965-3.113-3.321.536-6.151 2.708-7.528 5.777-6.956 15.667-29.571 15.662-36.521.001-1.378-3.07-4.207-5.241-7.529-5.778-3.321-.536-6.69.633-8.965 3.113-6.588 7.476-18.639 8.633-26.559 2.629-2.887-2.117-6.685-2.529-9.957-1.085-3.274 1.446-5.525 4.533-5.903 8.092-1.08 10.179-9.629 17.854-19.886 17.854-5.522 0-10 4.478-10 10v10.717c-10.595 2.286-19.26 9.825-23.123 19.744-14.608-6.105-16.556-26.758-2.842-35.321 2.503-1.583 4.175-4.194 4.565-7.13.392-2.937-.539-5.894-2.54-8.077-11.371-12.182-3.043-32.696 13.615-33.475 3.163-.175 6.056-1.838 7.798-4.482 1.742-2.646 2.129-5.96 1.042-8.935-1.427-3.871-1.592-8.273-.474-12.254 1.484-5.32-1.625-10.836-6.944-12.319-5.318-1.483-10.835 1.624-12.319 6.944-1.205 4.308-1.674 8.842-1.39 13.319-22.26 7.505-33.489 34.979-22.066 56.165-21.04 22.283-8.887 59.962 20.684 66.207 3.323 11.282 12.699 19.998 24.354 22.37 1.975 25.447 12.004 48.65 28.736 66.109 8.052 8.401 17.492 15.245 27.962 20.388v26.557l-82.865 24.791c-32.705 9.784-54.308 28.801-62.899 55.228-2.535.572-5.239 1.699-7.679 3.808-6.619 5.722-7.739 15.373-7.963 24.058-.305 11.868-.619 24.073 11.407 29.269v29.495c0 5.522 4.478 10 10 10h379.998c5.522 0 10-4.478 10-10v-29.495c12.026-5.194 11.713-17.398 11.409-29.266zm-22.164-8.279c.462-.056.836-.086 1.136-.101 1.121 2.001 1.38 17.781.765 19.634-.496.111-1.241.245-2.335.377l-68.812 8.253v-19.858zm-233.377-80.486c21.847 28.374 66.426 28.367 88.267 0l20.196 6.042c-29.123 46.851-99.549 46.836-128.66 0zm-42.925-141.533c0-5.522-4.478-10-10-10h-3.234c-16.001-.664-15.989-23.459 0-24.117h3.234c5.522 0 10-4.478 10-10v-11.252c11.482-2.939 21.019-10.833 26.081-21.412 10.261 3.133 21.996 1.773 31.25-3.574 15.337 17.533 44.123 17.53 59.455 0 9.254 5.346 20.99 6.707 31.251 3.574 5.062 10.579 14.598 18.473 26.08 21.412v11.252c0 5.522 4.478 10 10 10h3.235c16.001.664 15.989 23.459 0 24.117h-3.235c-5.522 0-10 4.478-10 10-.391 115.77-173.745 115.728-174.117 0zm87.059 107.059c10.418 0 20.484-1.288 30.001-3.784v23.724c-13.968 21.134-46.037 21.128-60.001.001v-23.726c9.516 2.497 19.582 3.785 30 3.785zm-127.133 59.305 43.055-12.881c35.805 65.518 132.369 65.494 168.157 0l43.055 12.881c24.142 7.223 40.144 19.725 47.719 37.238l-66.047 7.921c-5.026.603-8.81 4.866-8.81 9.929v57.609h-199.992v-57.609c0-5.062-3.783-9.326-8.81-9.929l-66.045-7.921c7.575-17.514 23.577-30.016 47.718-37.238zm-61.676 75.565c-1.094-.132-1.839-.266-2.335-.377-.316-1.784-.407-5.385-.269-10.74.131-5.091.664-7.683 1.034-8.894.299.015.674.045 1.136.101l69.246 8.305v19.858zm8.81 21.2 60.003 7.197v8.735h-60.003zm299.995 15.932v-8.735l60.003-7.197v15.932z"/></g></g></svg>